<?xml version="1.0" standalone="no"?>
<!DOCTYPE svg PUBLIC "-//W3C//DTD SVG 20010904//EN"
 "http://www.w3.org/TR/2001/REC-SVG-20010904/DTD/svg10.dtd">
<svg version="1.0" xmlns="http://www.w3.org/2000/svg"
 width="1366.000000pt" height="768.000000pt" viewBox="0 0 1366.000000 768.000000"
 preserveAspectRatio="xMidYMid meet">

<g transform="translate(0.000000,768.000000) scale(0.100000,-0.100000)"
fill="#9630FF" stroke="none">
<path d="M9565 6200 c-307 -22 -551 -131 -756 -339 -156 -159 -264 -344 -348
-596 -62 -185 -83 -307 -84 -465 0 -157 17 -252 70 -384 61 -154 90 -198 378
-571 295 -381 321 -422 361 -550 30 -96 25 -307 -10 -450 -33 -136 -62 -201
-111 -248 -45 -44 -91 -60 -170 -61 -75 -1 -117 22 -142 78 -32 72 -23 159 51
476 37 157 69 293 72 303 5 16 -20 17 -425 17 -237 0 -431 -2 -431 -5 0 -3
-25 -116 -55 -250 -90 -399 -98 -453 -98 -670 0 -163 3 -201 21 -266 67 -246
229 -388 512 -449 289 -64 612 -45 856 49 192 74 375 229 507 427 192 289 348
755 373 1117 12 176 -28 390 -102 545 -58 121 -181 293 -410 572 -308 377
-342 430 -363 561 -18 110 23 247 90 304 88 74 221 82 285 18 30 -30 34 -40
34 -86 0 -42 -44 -277 -66 -349 -5 -17 21 -18 440 -18 415 0 445 1 450 18 14
48 46 240 57 341 14 133 7 324 -15 426 -48 220 -201 384 -421 449 -136 41
-162 45 -400 60 -27 1 -95 0 -150 -4z"/>
<path d="M1362 3993 c-277 -1198 -505 -2188 -508 -2200 l-6 -23 429 0 430 0
128 557 c70 307 160 700 200 873 l72 315 289 6 c311 7 365 15 513 73 326 129
566 474 730 1046 90 313 125 558 118 815 -4 157 -8 191 -31 270 -73 243 -199
358 -459 417 -87 20 -126 21 -748 25 l-655 5 -502 -2179z m1403 1358 c76 -35
104 -91 105 -211 1 -196 -104 -580 -190 -697 -61 -83 -159 -128 -300 -139
l-91 -7 6 24 c3 13 57 249 120 524 64 275 117 506 120 513 7 20 181 16 230 -7z"/>
<path d="M3857 4527 c-208 -903 -386 -1680 -395 -1727 -11 -61 -16 -144 -16
-290 -1 -185 1 -213 22 -285 70 -240 229 -393 474 -455 234 -58 572 -46 800
31 180 60 311 141 444 273 184 184 306 404 397 716 20 69 203 850 407 1735
204 886 373 1618 376 1628 5 16 -20 17 -420 17 -234 0 -426 -2 -426 -4 0 -16
-755 -3266 -771 -3321 -66 -219 -149 -309 -287 -308 -73 1 -106 18 -135 74
-16 29 -18 50 -13 139 6 133 -17 27 399 1825 195 842 358 1545 362 1563 l7 32
-424 0 -423 0 -378 -1643z"/>
<path d="M6705 6143 c-9 -38 -994 -4311 -1002 -4345 l-5 -28 891 0 c490 0 891
2 891 4 0 7 160 699 166 719 5 16 -21 17 -445 17 -419 0 -451 1 -451 17 0 9
115 517 256 1128 421 1828 574 2496 574 2506 0 5 -175 9 -434 9 l-434 0 -7
-27z"/>
<path d="M11105 6158 c-2 -7 -227 -983 -500 -2168 -273 -1185 -500 -2170 -505
-2187 l-8 -33 906 0 907 0 96 423 95 422 -458 3 c-252 1 -458 6 -458 10 0 4
52 233 117 510 l117 502 415 0 416 0 88 388 c48 213 90 398 94 410 l5 22 -414
2 -415 3 68 295 c38 162 83 355 100 428 l31 132 434 0 c239 0 434 2 434 3 0 2
43 192 95 421 52 230 95 420 95 422 0 2 -394 4 -875 4 -692 0 -877 -3 -880
-12z"/>
</g>
</svg>
